<svg width="35" height="35" viewBox="0 0 35 35" fill="none" xmlns="http://www.w3.org/2000/svg">
<path d="M7.8408 22.0776C7.8408 24.029 6.24674 25.623 4.2954 25.623C2.34406 25.623 0.75 24.029 0.75 22.0776C0.75 20.1263 2.34406 18.5322 4.2954 18.5322H7.8408V22.0776Z" fill="#E01E5A"/>
<path d="M9.6272 22.0776C9.6272 20.1263 11.2213 18.5322 13.1726 18.5322C15.1239 18.5322 16.718 20.1263 16.718 22.0776V30.9549C16.718 32.9062 15.1239 34.5003 13.1726 34.5003C11.2213 34.5003 9.6272 32.9062 9.6272 30.9549V22.0776Z" fill="#E01E5A"/>
<path d="M13.1726 7.8408C11.2213 7.8408 9.6272 6.24674 9.6272 4.2954C9.6272 2.34406 11.2213 0.75 13.1726 0.75C15.1239 0.75 16.718 2.34406 16.718 4.2954V7.8408H13.1726Z" fill="#36C5F0"/>
<path d="M13.1726 9.62744C15.124 9.62744 16.718 11.2215 16.718 13.1728C16.718 15.1242 15.124 16.7182 13.1726 16.7182H4.2954C2.34406 16.7182 0.75 15.1242 0.75 13.1728C0.75 11.2215 2.34406 9.62744 4.2954 9.62744H13.1726Z" fill="#36C5F0"/>
<path d="M27.4092 13.1728C27.4092 11.2215 29.0032 9.62744 30.9546 9.62744C32.9059 9.62744 34.5 11.2215 34.5 13.1728C34.5 15.1242 32.9059 16.7182 30.9546 16.7182H27.4092V13.1728Z" fill="#2EB67D"/>
<path d="M25.6228 13.1726C25.6228 15.124 24.0287 16.718 22.0774 16.718C20.126 16.718 18.532 15.124 18.532 13.1726V4.2954C18.532 2.34406 20.126 0.75 22.0774 0.75C24.0287 0.75 25.6228 2.34406 25.6228 4.2954V13.1726Z" fill="#2EB67D"/>
<path d="M22.0774 27.4092C24.0287 27.4092 25.6228 29.0032 25.6228 30.9546C25.6228 32.9059 24.0287 34.5 22.0774 34.5C20.126 34.5 18.532 32.9059 18.532 30.9546V27.4092H22.0774Z" fill="#ECB22E"/>
<path d="M22.0774 25.623C20.126 25.623 18.532 24.029 18.532 22.0776C18.532 20.1263 20.126 18.5322 22.0774 18.5322H30.9546C32.906 18.5322 34.5 20.1263 34.5 22.0776C34.5 24.029 32.906 25.623 30.9546 25.623H22.0774Z" fill="#ECB22E"/>
</svg>
