<svg width="35" height="32" viewBox="0 0 35 32" fill="none" xmlns="http://www.w3.org/2000/svg">
<path d="M24.2911 12.0234H33.0088C33.8324 12.0234 34.5001 12.6911 34.5001 13.5147V21.4554C34.5001 24.4824 32.0462 26.9362 29.0193 26.9362H28.9933C25.9664 26.9366 23.5122 24.4831 23.5117 21.4562V12.8028C23.5117 12.3724 23.8607 12.0234 24.2911 12.0234Z" fill="#5059C9"/>
<path d="M30.1831 10.4536C32.1338 10.4536 33.7151 8.87228 33.7151 6.92163C33.7151 4.97097 32.1338 3.38965 30.1831 3.38965C28.2324 3.38965 26.6511 4.97097 26.6511 6.92163C26.6511 8.87228 28.2324 10.4536 30.1831 10.4536Z" fill="#5059C9"/>
<path d="M19.1948 10.4535C22.0124 10.4535 24.2965 8.16937 24.2965 5.35175C24.2965 2.53413 22.0124 0.25 19.1948 0.25C16.3771 0.25 14.093 2.53413 14.093 5.35175C14.093 8.16937 16.3771 10.4535 19.1948 10.4535Z" fill="#7B83EB"/>
<path d="M25.9975 12.0234H11.6074C10.7936 12.0436 10.1498 12.7189 10.1687 13.5328V22.5896C10.0551 27.4733 13.9188 31.526 18.8024 31.6455C23.686 31.526 27.5498 27.4733 27.4362 22.5896V13.5328C27.455 12.7189 26.8113 12.0436 25.9975 12.0234Z" fill="#7B83EB"/>
<path opacity="0.1" d="M19.5872 12.0234V24.715C19.5833 25.297 19.2306 25.8199 18.6925 26.0415C18.5211 26.1139 18.337 26.1513 18.1509 26.1513H10.8593C10.7573 25.8923 10.6631 25.6333 10.5846 25.3665C10.3099 24.4658 10.1697 23.5296 10.1686 22.588V13.5304C10.1498 12.7179 10.7925 12.0436 11.605 12.0234H19.5872Z" fill="black"/>
<path opacity="0.2" d="M18.8024 12.0234V25.4999C18.8023 25.6859 18.765 25.8701 18.6925 26.0415C18.4709 26.5796 17.948 26.9323 17.366 26.9362H11.2282C11.0948 26.6772 10.9692 26.4182 10.8593 26.1513C10.7494 25.8845 10.6631 25.6333 10.5846 25.3665C10.3099 24.4658 10.1697 23.5296 10.1686 22.588V13.5304C10.1498 12.7179 10.7925 12.0436 11.605 12.0234H18.8024Z" fill="black"/>
<path opacity="0.2" d="M18.8023 12.0234V23.9301C18.7964 24.7209 18.1568 25.3605 17.366 25.3665H10.5846C10.3099 24.4658 10.1697 23.5296 10.1686 22.588V13.5304C10.1498 12.7179 10.7925 12.0436 11.605 12.0234H18.8023Z" fill="black"/>
<path opacity="0.2" d="M18.0175 12.0234V23.9301C18.0115 24.7209 17.3719 25.3605 16.5811 25.3665H10.5846C10.3099 24.4658 10.1697 23.5296 10.1686 22.588V13.5304C10.1498 12.7179 10.7925 12.0436 11.605 12.0234H18.0175Z" fill="black"/>
<path opacity="0.1" d="M19.5872 7.96562V10.438C19.4537 10.4458 19.3282 10.4537 19.1947 10.4537C19.0613 10.4537 18.9357 10.4459 18.8023 10.438C18.5373 10.4204 18.2746 10.3784 18.0174 10.3124C16.428 9.93603 15.1149 8.82136 14.4854 7.31418C14.3771 7.06106 14.293 6.79826 14.2343 6.5293H18.1508C18.9428 6.5323 19.5842 7.17359 19.5872 7.96562Z" fill="black"/>
<path opacity="0.2" d="M18.8023 8.75029V10.4378C18.5374 10.4202 18.2746 10.3782 18.0175 10.3122C16.4281 9.93582 15.115 8.82115 14.4855 7.31396H17.366C18.158 7.31696 18.7993 7.95828 18.8023 8.75029Z" fill="black"/>
<path opacity="0.2" d="M18.8023 8.75029V10.4378C18.5374 10.4202 18.2746 10.3782 18.0175 10.3122C16.4281 9.93582 15.115 8.82115 14.4855 7.31396H17.366C18.158 7.31696 18.7993 7.95828 18.8023 8.75029Z" fill="black"/>
<path opacity="0.2" d="M18.0175 8.7503V10.3122C16.4281 9.93582 15.115 8.82115 14.4855 7.31396H16.5811C17.3731 7.31698 18.0144 7.95829 18.0175 8.7503Z" fill="black"/>
<path d="M2.18868 7.31396H16.5787C17.3733 7.31396 18.0174 7.95809 18.0174 8.75265V23.1427C18.0174 23.9373 17.3733 24.5814 16.5787 24.5814H2.18868C1.39411 24.5814 0.75 23.9373 0.75 23.1427V8.75265C0.75 7.95809 1.39413 7.31396 2.18868 7.31396Z" fill="url(#paint0_linear_5028_122)"/>
<path d="M13.17 12.791H10.2934V20.6242H8.46067V12.791H5.59741V11.2715H13.17V12.791Z" fill="white"/>
<defs>
<linearGradient id="paint0_linear_5028_122" x1="3.7497" y1="6.18979" x2="15.0177" y2="25.7056" gradientUnits="userSpaceOnUse">
<stop stop-color="#5A62C3"/>
<stop offset="0.5" stop-color="#4D55BD"/>
<stop offset="1" stop-color="#3940AB"/>
</linearGradient>
</defs>
</svg>
